<svg width="112" height="44" viewBox="0 0 112 44" fill="none" xmlns="http://www.w3.org/2000/svg">
<g clip-path="url(#clip0_43_99)">
<mask id="mask0_43_99" style="mask-type:luminance" maskUnits="userSpaceOnUse" x="0" y="0" width="112" height="44">
<path d="M112 0H0V44H112V0Z" fill="white"/>
</mask>
<g mask="url(#mask0_43_99)">
<mask id="mask1_43_99" style="mask-type:luminance" maskUnits="userSpaceOnUse" x="1" y="0" width="111" height="43">
<path d="M112 0H1V43H112V0Z" fill="white"/>
</mask>
<g mask="url(#mask1_43_99)">
<mask id="mask2_43_99" style="mask-type:luminance" maskUnits="userSpaceOnUse" x="1" y="0" width="111" height="43">
<path d="M112 0H1V43H112V0Z" fill="white"/>
</mask>
<g mask="url(#mask2_43_99)">
<mask id="mask3_43_99" style="mask-type:luminance" maskUnits="userSpaceOnUse" x="1" y="0" width="111" height="43">
<path d="M112 0H1V43H112V0Z" fill="white"/>
</mask>
<g mask="url(#mask3_43_99)">
<path d="M33.7455 20.524C30.0627 17.9841 25.3428 19.0182 22.8685 22.8323C20.8025 26.0176 17.6749 26.4148 16.4663 26.4148C12.5222 26.4148 9.82741 23.61 9.02715 20.6978C9.02715 20.6978 9.01081 20.6481 9.00265 20.6151C9.00265 20.582 8.98632 20.5488 8.97815 20.5158C8.66784 19.2996 8.58618 18.7205 8.58618 17.438C8.59435 10.4883 15.6252 2.75255 25.7674 2.75255C35.9095 2.75255 42.083 10.7613 43.6182 15.2042C43.5937 15.1297 43.5692 15.047 43.5447 14.9642C40.5886 6.26878 32.4471 0.0140076 22.8603 0.0140076C10.791 0.0140076 1 9.92568 1 22.1622C1 33.0915 8.78217 42.4489 19.5776 42.4489C28.1845 42.4489 33.9742 37.5592 36.6281 30.8163C38.0817 27.1263 37.0527 22.7993 33.7455 20.524Z" fill="#003668"/>
<path d="M43.7488 15.6426C42.475 11.3073 36.4893 2.75253 25.7674 2.75253C15.6334 2.75253 8.59436 10.4882 8.59436 17.438C8.59436 18.7287 8.66785 19.3078 8.98633 20.5158C8.85567 19.9862 8.78218 19.4567 8.78218 18.9356C8.78218 11.6961 15.9356 6.68245 23.2849 6.68245C33.2392 6.68245 41.3072 14.8566 41.3072 24.9421C41.3072 32.8433 36.8159 39.6855 30.2913 42.9784C38.7023 39.9006 44.7043 31.7429 44.7043 22.1539C44.7043 19.887 44.4021 17.8848 43.7407 15.6343" fill="#E6002D"/>
<path d="M66.6789 21.823V23.7507H56.2428V21.823H59.7705V17.9758H61.8283V21.823H66.687H66.6789ZM63.9596 20.1931V15.6675H56.7327V13.7067H66.0746V20.1931H63.9596ZM59.1989 25.1489V28.7396H71.2845V30.6839H57.0267V25.1489H59.1989ZM70.8109 24.3547H68.6387V13.3427H70.8109V17.6697H73.0402V19.7711H70.8109V24.3547Z" fill="#595757"/>
<path d="M80.6183 13.4668L85.4934 27.8709L83.6724 28.6238L80.6183 19.5395L77.605 28.7644L75.7432 28.0115L80.6183 13.4668ZM86.4978 13.3675H88.5148V30.9487H86.4978V21.7982H84.3256V19.8126H86.4978V13.3675ZM90.1561 13.3509H92.2548V31.0562H90.1561V13.3509Z" fill="#595757"/>
<path d="M96.5663 16.6603V14.8153H100.658V13.1276H102.968V14.8153H106.864V16.6603H102.609L107.019 21.1859L105.606 22.5345L101.809 18.5301L98.0444 22.8571L96.599 21.4838L101.025 16.6603H96.5582H96.5663ZM110.514 27.2753C110.514 27.8709 110.391 28.4252 110.154 28.9548C109.91 29.476 109.591 29.9393 109.183 30.3365C108.774 30.7335 108.301 31.0479 107.746 31.2796C107.19 31.5112 106.602 31.6271 105.974 31.6271C105.345 31.6271 104.773 31.5112 104.21 31.2796C103.646 31.0479 103.164 30.7335 102.764 30.3365C102.356 29.9393 102.038 29.476 101.793 28.9548C101.548 28.4335 101.433 27.8709 101.433 27.2753C101.433 26.6795 101.556 26.1169 101.793 25.5957C102.038 25.0663 102.356 24.6111 102.764 24.2141C103.173 23.8169 103.654 23.5025 104.21 23.2708C104.773 23.0392 105.361 22.9234 105.974 22.9234C106.586 22.9234 107.19 23.0392 107.746 23.2708C108.301 23.5025 108.783 23.8169 109.183 24.2141C109.591 24.6111 109.91 25.0663 110.154 25.5957C110.391 26.1169 110.514 26.6795 110.514 27.2753ZM108.382 27.2586C108.382 26.5968 108.137 26.0259 107.664 25.5543C107.19 25.0745 106.619 24.8428 105.949 24.8428C105.279 24.8428 104.732 25.0828 104.267 25.5543C103.793 26.0342 103.565 26.5968 103.565 27.2586C103.565 27.9206 103.801 28.508 104.267 28.9796C104.74 29.4512 105.296 29.6829 105.949 29.6829C106.602 29.6829 107.19 29.4512 107.664 28.9796C108.137 28.508 108.382 27.9371 108.382 27.2586ZM109.828 22.7745V19.3989H106.774V17.5125H109.828V13.3427H112V22.7662H109.828V22.7745Z" fill="#595757"/>
</g>
</g>
</g>
</g>
</g>
<defs>
<clipPath id="clip0_43_99">
<rect width="112" height="44" fill="white"/>
</clipPath>
</defs>
</svg>
