<svg width="146" height="44" viewBox="0 0 146 44" fill="none" xmlns="http://www.w3.org/2000/svg">
<g clip-path="url(#clip0_43_121)">
<mask id="mask0_43_121" style="mask-type:luminance" maskUnits="userSpaceOnUse" x="0" y="0" width="146" height="44">
<path d="M146 0H0V44H146V0Z" fill="white"/>
</mask>
<g mask="url(#mask0_43_121)">
<mask id="mask1_43_121" style="mask-type:luminance" maskUnits="userSpaceOnUse" x="1" y="1" width="145" height="42">
<path d="M146 1H1V43H146V1Z" fill="white"/>
</mask>
<g mask="url(#mask1_43_121)">
<mask id="mask2_43_121" style="mask-type:luminance" maskUnits="userSpaceOnUse" x="1" y="1" width="145" height="42">
<path d="M146 1H1V43H146V1Z" fill="white"/>
</mask>
<g mask="url(#mask2_43_121)">
<mask id="mask3_43_121" style="mask-type:luminance" maskUnits="userSpaceOnUse" x="1" y="1" width="145" height="42">
<path d="M146 1H1V43H146V1Z" fill="white"/>
</mask>
<g mask="url(#mask3_43_121)">
<path d="M33.2358 21.0486C29.6045 18.5767 24.9669 19.5848 22.5168 23.3012C20.4868 26.4042 17.4067 26.7898 16.2254 26.7898C12.3403 26.7898 9.68898 24.055 8.90145 21.2239C8.90145 21.2239 8.88395 21.1713 8.88395 21.1449C8.88395 21.1099 8.86645 21.0836 8.8577 21.0486C8.55145 19.8652 8.47269 19.3043 8.47269 18.0508C8.47269 11.2928 15.4029 3.75464 25.3781 3.75464C35.3534 3.75464 41.4435 11.547 42.9573 15.877C42.9223 15.7982 42.9048 15.7192 42.8786 15.6491C39.9735 7.18187 31.9496 1.09 22.5081 1.09C10.634 1.09 1 10.7318 1 22.6438C1 33.2849 8.65645 42.392 19.288 42.392C27.7582 42.392 33.4546 37.6324 36.0622 31.076C37.4972 27.4822 36.4822 23.2749 33.2271 21.0573L33.2358 21.0486Z" fill="#003668"/>
<path d="M43.0797 16.2977C41.8197 12.0729 35.9308 3.75464 25.3693 3.75464C15.394 3.75464 8.46387 11.284 8.46387 18.0508C8.46387 19.3043 8.54263 19.8652 8.84888 21.0486C8.71763 20.5314 8.65638 20.0142 8.65638 19.5146C8.65638 12.4673 15.6915 7.59383 22.928 7.59383C32.7282 7.59383 40.6647 15.5527 40.6647 25.3611C40.6647 33.0482 36.2458 39.7098 29.8231 42.9091C38.1009 39.9115 44.0073 31.97 44.0073 22.6438C44.0073 20.435 43.7098 18.4891 43.0622 16.2977H43.0797Z" fill="#E6002D"/>
<path d="M71.0806 14.5272H59.7578V18.1911H71.0806V14.5272ZM57.1065 20.4963V12.1956H73.7231V20.4963H57.1065ZM75.3069 22.6964V25.0455H66.8542V28.3851H64.1591V25.0455H55.5314V22.6964H75.3157H75.3069ZM59.8015 26.781H57.1065V33.1183H73.9944V30.7693H59.8015V26.781ZM84.5909 14.0714V11.7661H87.4872V14.0714H92.5536V16.3767H79.4983V14.0714H84.5909ZM88.721 21.6007C88.721 20.8908 88.4585 20.2772 87.9423 19.7688C87.426 19.2604 86.796 18.9975 86.0522 18.9975C85.3084 18.9975 84.6872 19.2517 84.1709 19.7688C83.6546 20.286 83.4009 20.8908 83.4009 21.6007C83.4009 22.3107 83.6546 22.9243 84.1709 23.4327C84.6784 23.941 85.3084 24.204 86.0522 24.204C86.796 24.204 87.426 23.9499 87.9423 23.4327C88.4585 22.9243 88.721 22.3107 88.721 21.6007ZM91.3198 21.6007C91.3198 22.2582 91.1798 22.8892 90.9086 23.4853C90.6373 24.0813 90.2611 24.5985 89.7798 25.0455C89.1235 25.6591 88.3185 26.0798 87.3822 26.3077V29.0337H93.0174V31.3828H79.0433V29.0337H84.7047V26.3077C83.7334 26.0623 82.9284 25.6416 82.3071 25.0455C81.8258 24.5985 81.4583 24.0813 81.1871 23.4853C80.9158 22.8892 80.7758 22.2669 80.7758 21.6007C80.7758 20.9346 80.9158 20.3122 81.1871 19.7162C81.4583 19.1202 81.8346 18.6031 82.3071 18.156C82.7884 17.7089 83.3484 17.3672 83.9871 17.1129C84.6259 16.8675 85.3172 16.7448 86.0347 16.7448C86.7522 16.7448 87.4435 16.8675 88.091 17.1129C88.7298 17.3583 89.2898 17.7089 89.771 18.156C90.2523 18.6031 90.6286 19.1202 90.8998 19.7162C91.1711 20.3122 91.3111 20.9346 91.3111 21.6007H91.3198ZM97.3487 33.4864H94.6799V11.9239H97.3487V20.9872H100.114V23.5116H97.3487V33.4953V33.4864ZM103.045 15.6053V13.2562H113.58V15.6053H109.232L114.053 30.0417L111.778 30.7342L108.418 20.3823L105.031 30.9095L102.66 30.1908L107.534 15.6053H103.063H103.045ZM120.003 11.9151H122.576V33.4864H120.003V23.3538H117.527V33.3637H115.033V11.9502H117.527V20.8908H120.003V11.9239V11.9151ZM126.986 16.0261V13.7734H132.026V11.6697H134.87V13.7734H139.665V16.0261H134.476L139.866 21.5219L138.09 23.1785L133.443 18.3488L128.867 23.5729L127.038 21.8637L132.428 16.0172H126.986V16.0261ZM143.331 23.9761H146V11.9151H143.331V16.7711H139.569V19.0764H143.331V23.9761ZM144.171 28.9023C144.171 29.6297 144.022 30.3047 143.725 30.9446C143.427 31.5844 143.034 32.1366 142.535 32.6187C142.019 33.1008 141.424 33.4777 140.741 33.7582C140.059 34.0387 139.332 34.1789 138.58 34.1789C137.827 34.1789 137.092 34.0387 136.401 33.7582C135.71 33.4777 135.106 33.1008 134.598 32.6187C134.1 32.1366 133.706 31.5844 133.408 30.9446C133.111 30.3047 132.962 29.6297 132.962 28.9023C132.962 28.1747 133.111 27.491 133.408 26.8424C133.706 26.2025 134.1 25.6416 134.598 25.1594C135.106 24.6774 135.71 24.3005 136.401 24.02C137.092 23.7395 137.819 23.5993 138.58 23.5993C139.341 23.5993 140.059 23.7395 140.741 24.02C141.424 24.3005 142.019 24.6774 142.535 25.1594C143.025 25.6416 143.427 26.2025 143.725 26.8424C144.022 27.491 144.171 28.1747 144.171 28.9023ZM141.546 28.8759C141.546 28.0695 141.249 27.3683 140.654 26.781C140.059 26.1937 139.359 25.9045 138.554 25.9045C137.749 25.9045 137.049 26.1937 136.462 26.781C135.876 27.3683 135.587 28.0607 135.587 28.8759C135.587 29.6911 135.876 30.3748 136.462 30.9533C137.049 31.5318 137.74 31.8211 138.554 31.8211C139.367 31.8211 140.059 31.5318 140.654 30.9533C141.249 30.3748 141.546 29.6823 141.546 28.8759Z" fill="#595757"/>
</g>
</g>
</g>
</g>
</g>
<defs>
<clipPath id="clip0_43_121">
<rect width="146" height="44" fill="white"/>
</clipPath>
</defs>
</svg>
