<svg width="122" height="48" viewBox="0 0 122 48" fill="none" xmlns="http://www.w3.org/2000/svg">
<g clip-path="url(#clip0_43_141)">
<mask id="mask0_43_141" style="mask-type:luminance" maskUnits="userSpaceOnUse" x="0" y="0" width="122" height="48">
<path d="M122 0H0V48H122V0Z" fill="white"/>
</mask>
<g mask="url(#mask0_43_141)">
<mask id="mask1_43_141" style="mask-type:luminance" maskUnits="userSpaceOnUse" x="0" y="1" width="122" height="47">
<path d="M122 1H0V48H122V1Z" fill="white"/>
</mask>
<g mask="url(#mask1_43_141)">
<mask id="mask2_43_141" style="mask-type:luminance" maskUnits="userSpaceOnUse" x="0" y="1" width="122" height="47">
<path d="M122 1H0V48H122V1Z" fill="white"/>
</mask>
<g mask="url(#mask2_43_141)">
<mask id="mask3_43_141" style="mask-type:luminance" maskUnits="userSpaceOnUse" x="0" y="1" width="122" height="47">
<path d="M122 1H0V48H122V1Z" fill="white"/>
</mask>
<g mask="url(#mask3_43_141)">
<path d="M78.1719 26.6575H60.4276V24.6773H68.1121V23.4139H61.8556V15.7913H76.7227V17.7644H64.1886V18.7225H76.7227V20.5253H64.1886V21.5048H76.7651V23.4139H70.4662V24.6773H78.1719V26.6575ZM74.0363 31.4128C74.0363 32.0232 73.9091 32.5981 73.6616 33.1304C73.4071 33.6627 73.0749 34.1312 72.6578 34.5216C72.2265 34.9261 71.7246 35.2526 71.1661 35.4868C70.6006 35.7282 69.9996 35.8417 69.3493 35.8417C68.6989 35.8417 68.0909 35.7211 67.5183 35.4868C66.9456 35.2455 66.4437 34.9261 66.0125 34.5216C65.5954 34.1312 65.256 33.6699 65.0086 33.1304C64.7541 32.5911 64.6269 32.0232 64.6269 31.4128C64.6269 30.8025 64.7541 30.2347 65.0086 29.7095C65.2631 29.1772 65.5954 28.7229 66.0125 28.3254C66.4437 27.9209 66.9456 27.6015 67.5183 27.3602C68.0909 27.1189 68.6989 26.9982 69.3493 26.9982C69.9996 26.9982 70.6076 27.1189 71.1661 27.3602C71.7246 27.6015 72.2265 27.9209 72.6578 28.3254C73.0749 28.7158 73.4142 29.1772 73.6616 29.7095C73.9161 30.2347 74.0363 30.8095 74.0363 31.4128ZM71.7175 31.3915C71.7175 30.7386 71.4842 30.1779 71.0247 29.7095C70.5652 29.2339 69.9996 28.9997 69.3351 28.9997C68.6706 28.9997 68.105 29.2339 67.6385 29.7095C67.1719 30.1779 66.9386 30.7386 66.9386 31.3915C66.9386 32.0445 67.1719 32.6052 67.6385 33.0666C68.1121 33.5279 68.6706 33.7621 69.3351 33.7621C69.9996 33.7621 70.5652 33.5279 71.0247 33.0666C71.4842 32.6052 71.7175 32.0445 71.7175 31.3915Z" fill="#595757"/>
<path d="M89.8224 32.4136H87.5036V18.9426H81.5511V16.7707H89.8224V32.4136ZM92.9613 15.5925H95.2093V34.841H92.9613V28.0415H90.7768V25.9549H92.9613V22.6261H90.7768V20.5182H92.9613V15.5854V15.5925ZM97.1605 15.5712H99.4581V34.9546H97.1605V15.5712Z" fill="#595757"/>
<path d="M104.633 19.2052V17.1824H109.157V15.337H111.709V17.1824H116.015V19.2052H111.321L116.191 24.1592L114.629 25.6356L110.43 21.2422L106.273 25.9762L104.668 24.4787L109.56 19.1981H104.626L104.633 19.2052ZM120.044 30.8309C120.044 31.4839 119.91 32.0943 119.648 32.6692C119.38 33.2441 119.026 33.7409 118.574 34.181C118.129 34.614 117.598 34.9617 116.983 35.2173C116.368 35.4656 115.718 35.6005 115.025 35.6005C114.332 35.6005 113.696 35.4728 113.074 35.2173C112.452 34.9617 111.922 34.621 111.469 34.181C111.024 33.748 110.663 33.2441 110.395 32.6692C110.126 32.0943 109.992 31.4839 109.992 30.8309C109.992 30.1779 110.126 29.5676 110.395 28.9926C110.663 28.4178 111.017 27.9139 111.469 27.481C111.914 27.0479 112.452 26.7002 113.074 26.4518C113.696 26.1963 114.339 26.0685 115.025 26.0685C115.711 26.0685 116.368 26.1963 116.983 26.4518C117.598 26.7002 118.129 27.0479 118.574 27.481C119.019 27.9139 119.38 28.4178 119.648 28.9926C119.91 29.5676 120.044 30.1779 120.044 30.8309ZM117.683 30.8096C117.683 30.0857 117.422 29.4611 116.891 28.943C116.361 28.4249 115.732 28.1623 114.997 28.1623C114.262 28.1623 113.654 28.4249 113.137 28.943C112.621 29.4682 112.36 30.0857 112.36 30.8096C112.36 31.5336 112.621 32.1724 113.137 32.6905C113.661 33.2015 114.276 33.4641 114.997 33.4641C115.718 33.4641 116.361 33.2086 116.891 32.6905C117.422 32.1794 117.683 31.5477 117.683 30.8096ZM119.288 25.8982V22.2004H115.909V20.135H119.288V15.5713H121.692V25.8911H119.288V25.8982Z" fill="#595757"/>
<path d="M36.4621 23.4282C32.3972 20.653 27.187 21.7816 24.4582 25.9549C22.1748 29.4398 18.7249 29.8728 17.3958 29.8728C13.0481 29.8728 10.0718 26.7995 9.18815 23.6198C9.18815 23.6198 9.17401 23.563 9.15987 23.5276C9.1528 23.492 9.13866 23.4566 9.13159 23.4211C8.78519 22.0938 8.70036 21.4621 8.70036 20.0497C8.70036 12.4483 16.4697 3.98806 27.6536 3.98806C38.8375 3.98806 45.6666 12.7464 47.3562 17.6082C47.3279 17.523 47.2996 17.4379 47.2713 17.3456C44.0194 7.84202 35.02 1 24.437 1C11.1181 1 0.315979 11.845 0.315979 25.2168C0.315979 37.1761 8.90537 47.4107 20.8174 47.4107C30.3188 47.4107 36.7025 42.0592 39.6363 34.6919C41.2482 30.6606 40.1029 25.9194 36.4551 23.4282H36.4621Z" fill="#003668"/>
<path d="M47.4976 18.0908C46.0907 13.3426 39.4879 3.99512 27.6465 3.99512C16.4556 3.99512 8.6933 12.4554 8.6933 20.0568C8.6933 21.4692 8.77813 22.1009 9.12454 23.4282C8.97608 22.8462 8.89831 22.2641 8.89831 21.7034C8.89831 13.7897 16.7949 8.30331 24.9106 8.30331C35.8966 8.30331 44.8041 17.2462 44.8041 28.2757C44.8041 36.9205 39.8484 44.4013 32.6517 47.9998C41.9339 44.6285 48.558 35.7069 48.558 25.2239C48.558 22.7468 48.2257 20.5537 47.4976 18.0979V18.0908Z" fill="#E6002D"/>
</g>
</g>
</g>
</g>
</g>
<defs>
<clipPath id="clip0_43_141">
<rect width="122" height="48" fill="white"/>
</clipPath>
</defs>
</svg>
