<svg width="112" height="44" viewBox="0 0 112 44" fill="none" xmlns="http://www.w3.org/2000/svg">
<g clip-path="url(#clip0_43_141)">
<mask id="mask0_43_141" style="mask-type:luminance" maskUnits="userSpaceOnUse" x="0" y="0" width="112" height="44">
<path d="M111.833 0H0V44H111.833V0Z" fill="white"/>
</mask>
<g mask="url(#mask0_43_141)">
<mask id="mask1_43_141" style="mask-type:luminance" maskUnits="userSpaceOnUse" x="0" y="0" width="112" height="44">
<path d="M111.833 0.916687H0V44H111.833V0.916687Z" fill="white"/>
</mask>
<g mask="url(#mask1_43_141)">
<mask id="mask2_43_141" style="mask-type:luminance" maskUnits="userSpaceOnUse" x="0" y="0" width="112" height="44">
<path d="M111.833 0.916687H0V44H111.833V0.916687Z" fill="white"/>
</mask>
<g mask="url(#mask2_43_141)">
<mask id="mask3_43_141" style="mask-type:luminance" maskUnits="userSpaceOnUse" x="0" y="0" width="112" height="44">
<path d="M111.833 0.916687H0V44H111.833V0.916687Z" fill="white"/>
</mask>
<g mask="url(#mask3_43_141)">
<path d="M71.6576 24.4361H55.392V22.6209H62.4361V21.4628H56.701V14.4753H70.3291V16.284H58.8396V17.1623H70.3291V18.8149H58.8396V19.7127H70.368V21.4628H64.594V22.6209H71.6576V24.4361ZM67.8666 28.7951C67.8666 29.3547 67.75 29.8816 67.5231 30.3696C67.2898 30.8575 66.9853 31.2869 66.603 31.6448C66.2076 32.0156 65.7476 32.3149 65.2356 32.5296C64.7172 32.7509 64.1663 32.855 63.5702 32.855C62.974 32.855 62.4167 32.7443 61.8918 32.5296C61.3668 32.3084 60.9067 32.0156 60.5115 31.6448C60.1291 31.2869 59.818 30.8641 59.5912 30.3696C59.3579 29.8752 59.2413 29.3547 59.2413 28.7951C59.2413 28.2357 59.3579 27.7151 59.5912 27.2337C59.8245 26.7458 60.1291 26.3293 60.5115 25.965C60.9067 25.5942 61.3668 25.3014 61.8918 25.0802C62.4167 24.859 62.974 24.7483 63.5702 24.7483C64.1663 24.7483 64.7236 24.859 65.2356 25.0802C65.7476 25.3014 66.2076 25.5942 66.603 25.965C66.9853 26.3228 67.2963 26.7458 67.5231 27.2337C67.7564 27.7151 67.8666 28.2421 67.8666 28.7951ZM65.741 28.7756C65.741 28.177 65.5272 27.663 65.106 27.2337C64.6848 26.7978 64.1663 26.5831 63.5572 26.5831C62.948 26.5831 62.4296 26.7978 62.002 27.2337C61.5742 27.663 61.3604 28.177 61.3604 28.7756C61.3604 29.3742 61.5742 29.8882 62.002 30.311C62.4361 30.7339 62.948 30.9486 63.5572 30.9486C64.1663 30.9486 64.6848 30.7339 65.106 30.311C65.5272 29.8882 65.741 29.3742 65.741 28.7756Z" fill="#595757"/>
<path d="M82.3372 29.7125H80.2116V17.364H74.7552V15.3731H82.3372V29.7125ZM85.2145 14.2931H87.2752V31.9376H85.2145V25.7047H83.2121V23.792H85.2145V20.7406H83.2121V18.8083H85.2145V14.2866V14.2931ZM89.0638 14.2736H91.1699V32.0417H89.0638V14.2736Z" fill="#595757"/>
<path d="M95.9136 17.6048V15.7506H100.061V14.059H102.4V15.7506H106.347V17.6048H102.044L106.508 22.146L105.077 23.4993L101.227 19.472L97.4169 23.8115L95.9457 22.4388L100.43 17.5983H95.9072L95.9136 17.6048ZM110.04 28.2617C110.04 28.8602 109.918 29.4198 109.677 29.9468C109.432 30.4738 109.107 30.9292 108.693 31.3325C108.285 31.7295 107.798 32.0483 107.234 32.2825C106.671 32.5102 106.075 32.6338 105.44 32.6338C104.804 32.6338 104.221 32.5167 103.651 32.2825C103.081 32.0483 102.595 31.7359 102.18 31.3325C101.772 30.9357 101.441 30.4738 101.195 29.9468C100.949 29.4198 100.826 28.8602 100.826 28.2617C100.826 27.6631 100.949 27.1037 101.195 26.5766C101.441 26.0496 101.766 25.5877 102.18 25.1909C102.588 24.794 103.081 24.4752 103.651 24.2475C104.221 24.0133 104.811 23.8961 105.44 23.8961C106.068 23.8961 106.671 24.0133 107.234 24.2475C107.798 24.4752 108.285 24.794 108.693 25.1909C109.101 25.5877 109.432 26.0496 109.677 26.5766C109.918 27.1037 110.04 27.6631 110.04 28.2617ZM107.876 28.2422C107.876 27.5785 107.637 27.006 107.15 26.5311C106.664 26.0562 106.088 25.8154 105.414 25.8154C104.74 25.8154 104.183 26.0562 103.709 26.5311C103.236 27.0125 102.997 27.5785 102.997 28.2422C102.997 28.9058 103.236 29.4914 103.709 29.9663C104.189 30.4347 104.753 30.6754 105.414 30.6754C106.075 30.6754 106.664 30.4412 107.15 29.9663C107.637 29.4978 107.876 28.9188 107.876 28.2422ZM109.347 23.74V20.3504H106.25V18.4571H109.347V14.2737H111.551V23.7335H109.347V23.74Z" fill="#595757"/>
<path d="M33.4236 21.4759C29.6974 18.932 24.9214 19.9665 22.42 23.792C20.3269 26.9865 17.1645 27.3834 15.9462 27.3834C11.9608 27.3834 9.23254 24.5662 8.4225 21.6515C8.4225 21.6515 8.40953 21.5995 8.39657 21.567C8.39009 21.5344 8.37713 21.5019 8.37065 21.4693C8.05311 20.2527 7.97535 19.6736 7.97535 18.3789C7.97535 11.4109 15.0972 3.65574 25.3491 3.65574C35.601 3.65574 41.8611 11.6843 43.4099 16.1408C43.3839 16.0628 43.358 15.9848 43.332 15.9002C40.3511 7.18853 32.1017 0.916687 22.4006 0.916687C10.1916 0.916687 0.289673 10.8579 0.289673 23.1154C0.289673 34.0781 8.16328 43.4598 19.0826 43.4598C27.7922 43.4598 33.644 38.5543 36.3333 31.801C37.8109 28.1056 36.761 23.7595 33.4172 21.4759H33.4236Z" fill="#003668"/>
<path d="M43.5395 16.5833C42.2498 12.2307 36.1972 3.66223 25.3426 3.66223C15.0843 3.66223 7.96887 11.4175 7.96887 18.3855C7.96887 19.6801 8.04663 20.2592 8.36418 21.4758C8.22809 20.9423 8.1568 20.4088 8.1568 19.8949C8.1568 12.6406 15.3953 7.61141 22.8347 7.61141C32.9052 7.61141 41.0704 15.8091 41.0704 25.9195C41.0704 33.8438 36.5277 40.7012 29.9307 43.9999C38.4394 40.9095 44.5115 32.7314 44.5115 23.1219C44.5115 20.8512 44.2069 18.8409 43.5395 16.5898V16.5833Z" fill="#E6002D"/>
</g>
</g>
</g>
</g>
</g>
<defs>
<clipPath id="clip0_43_141">
<rect width="111.833" height="44" fill="white"/>
</clipPath>
</defs>
</svg>
