<svg width="150" height="45" viewBox="0 0 150 45" fill="none" xmlns="http://www.w3.org/2000/svg">
<g clip-path="url(#clip0_43_163)">
<mask id="mask0_43_163" style="mask-type:luminance" maskUnits="userSpaceOnUse" x="0" y="0" width="150" height="45">
<path d="M150 0H0V45H150V0Z" fill="white"/>
</mask>
<g mask="url(#mask0_43_163)">
<mask id="mask1_43_163" style="mask-type:luminance" maskUnits="userSpaceOnUse" x="1" y="1" width="149" height="44">
<path d="M150 1H1V45H150V1Z" fill="white"/>
</mask>
<g mask="url(#mask1_43_163)">
<mask id="mask2_43_163" style="mask-type:luminance" maskUnits="userSpaceOnUse" x="1" y="1" width="149" height="44">
<path d="M150 1H1V45H150V1Z" fill="white"/>
</mask>
<g mask="url(#mask2_43_163)">
<mask id="mask3_43_163" style="mask-type:luminance" maskUnits="userSpaceOnUse" x="1" y="1" width="149" height="44">
<path d="M150 1H1V45H150V1Z" fill="white"/>
</mask>
<g mask="url(#mask3_43_163)">
<path d="M34.8738 22.0024C31.0601 19.4188 26.1827 20.4711 23.6219 24.3583C21.4787 27.6016 18.256 28.0021 17.0031 28.0021C12.9295 28.0021 10.1402 25.1436 9.31282 22.183C9.31282 22.183 9.29707 22.128 9.28918 22.1045C9.28918 22.0731 9.27343 22.0417 9.26554 22.0024C8.94249 20.7695 8.86369 20.1805 8.86369 18.869C8.86369 11.7935 16.1443 3.92477 26.6319 3.92477C37.1194 3.92477 43.5097 12.0684 45.0934 16.5995C45.0698 16.521 45.0382 16.4425 45.0146 16.3561C41.9574 7.50573 33.5263 1.13696 23.6061 1.13696C11.1251 1.13696 1 11.2281 1 23.6672C1 34.7871 9.0528 44.3127 20.2179 44.3127C29.1218 44.3127 35.1102 39.3339 37.8522 32.4783C39.3571 28.7245 38.2935 24.319 34.8738 22.0024Z" fill="#003668"/>
<path d="M45.2195 17.0393C43.8957 12.6259 37.7104 3.9248 26.6161 3.9248C16.1285 3.9248 8.8479 11.8014 8.8479 18.869C8.8479 20.1805 8.9267 20.7695 9.24975 22.0024C9.1158 21.4605 9.04488 20.9187 9.04488 20.3925C9.04488 13.0264 16.4437 7.92197 24.0474 7.92197C34.3458 7.92197 42.6902 16.2383 42.6902 26.5022C42.6902 34.5436 38.0491 41.5092 31.2964 44.8546C39.9953 41.7212 46.2044 33.4206 46.2044 23.6672C46.2044 21.3584 45.8971 19.3245 45.2116 17.0393" fill="#E6002D"/>
<path d="M67.7311 17.11V19.0261H57.7872V17.11H61.593V14.9897H64.0041V17.11H67.7311ZM67.408 24.3583C67.408 24.9394 67.2898 25.4891 67.0455 26.0153C66.8013 26.5414 66.4704 26.9969 66.0528 27.3895C65.6352 27.7665 65.1545 28.0727 64.6029 28.3005C64.0593 28.5282 63.4683 28.646 62.8537 28.646C62.2391 28.646 61.6481 28.5282 61.1045 28.3005C60.5607 28.0727 60.0801 27.7665 59.6783 27.3895C59.2607 26.9969 58.9298 26.5414 58.6854 26.0153C58.4412 25.4891 58.323 24.9394 58.323 24.3583C58.323 23.7772 58.4412 23.2275 58.6854 22.7013C58.9298 22.1752 59.2607 21.7275 59.6783 21.3506C60.0801 20.9579 60.5607 20.6517 61.1045 20.4239C61.6481 20.1962 62.2391 20.0784 62.8537 20.0784C63.4683 20.0784 64.0593 20.1962 64.6029 20.4239C65.1467 20.6517 65.6352 20.9658 66.0528 21.3506C66.4704 21.7275 66.8013 22.1752 67.0455 22.7013C67.2898 23.2275 67.408 23.7772 67.408 24.3583ZM65.2648 24.3583C65.2648 23.6986 65.0363 23.1332 64.5793 22.662C64.1223 22.1909 63.555 21.9553 62.8773 21.9553C62.1997 21.9553 61.6481 22.1909 61.1832 22.662C60.7184 23.1332 60.482 23.6986 60.482 24.3583C60.482 25.0179 60.7104 25.5755 61.1832 26.0467C61.6481 26.51 62.2155 26.7456 62.8773 26.7456C63.5392 26.7456 64.1223 26.51 64.5793 26.0467C65.0363 25.5834 65.2648 25.0179 65.2648 24.3583ZM73.0654 14.707H75.256V32.7139H73.0654V24.4133H70.9617V32.6118H68.8972V14.7227H70.9617V22.3715H73.0654V14.6991V14.707Z" fill="#595757"/>
<path d="M86.8387 19.2853C86.8387 19.8899 86.7127 20.4632 86.4526 21.0051C86.1926 21.5469 85.8538 22.0181 85.4204 22.4186C85.0028 22.8191 84.5064 23.1411 83.9391 23.3767C83.3717 23.6123 82.765 23.73 82.1189 23.73C81.4729 23.73 80.8424 23.6123 80.2673 23.3767C79.6921 23.1411 79.1956 22.8191 78.778 22.4186C78.3446 22.0181 77.998 21.5469 77.7458 21.0051C77.4859 20.4632 77.3597 19.8978 77.3597 19.2853C77.3597 18.6727 77.4859 18.1073 77.7458 17.5576C78.0059 17.0079 78.3446 16.5446 78.778 16.1519C79.1956 15.7514 79.6921 15.4216 80.2673 15.186C80.8424 14.9426 81.4571 14.8248 82.1189 14.8248C82.7808 14.8248 83.3717 14.9426 83.9391 15.186C84.5064 15.4294 84.9949 15.7514 85.4204 16.1519C85.8538 16.5446 86.2005 17.0079 86.4526 17.5576C86.7127 18.0995 86.8387 18.6806 86.8387 19.2853ZM84.6719 19.2853C84.6719 18.5863 84.4198 17.9895 83.9233 17.4869C83.4269 16.9922 82.8202 16.7409 82.1189 16.7409C81.4177 16.7409 80.8031 16.9922 80.3066 17.4869C79.8103 17.9817 79.566 18.5863 79.566 19.2853C79.566 19.9842 79.8103 20.5967 80.3066 21.0914C80.7952 21.5862 81.4019 21.8296 82.1189 21.8296C82.8359 21.8296 83.4191 21.5862 83.9233 21.0914C84.4198 20.5967 84.6719 19.9999 84.6719 19.2853ZM91.4009 28.8738C91.4009 29.4784 91.2749 30.0517 91.0306 30.5779C90.7784 31.1119 90.4475 31.5752 90.0299 31.9835C89.6123 32.384 89.1159 32.706 88.5407 32.9416C87.9655 33.1772 87.3587 33.295 86.7284 33.295C86.0981 33.295 85.4913 33.1772 84.924 32.9416C84.3567 32.706 83.8682 32.384 83.4427 31.9835C83.0093 31.583 82.6705 31.1119 82.4263 30.5779C82.1819 30.0438 82.0637 29.4784 82.0637 28.8738C82.0637 28.2691 82.1819 27.7037 82.4263 27.1697C82.6705 26.6357 83.0093 26.1723 83.4427 25.764C83.8603 25.3635 84.3567 25.0415 84.924 24.8059C85.4913 24.5703 86.0902 24.4525 86.7284 24.4525C87.3666 24.4525 87.9655 24.5703 88.5407 24.8059C89.1159 25.0415 89.6123 25.3635 90.0299 25.764C90.4475 26.1645 90.7863 26.6357 91.0306 27.1697C91.2827 27.7037 91.4009 28.2691 91.4009 28.8738ZM89.2104 28.8502C89.2104 28.1748 88.9662 27.6016 88.4777 27.1147C87.9891 26.6278 87.4061 26.3844 86.7363 26.3844C86.0666 26.3844 85.4756 26.6278 84.9871 27.1147C84.4907 27.6016 84.2464 28.1748 84.2464 28.8502C84.2464 29.5256 84.4907 30.1224 84.9871 30.5936C85.4756 31.0726 86.0666 31.3082 86.7363 31.3082C87.4061 31.3082 87.9891 31.0726 88.4777 30.5936C88.9662 30.1145 89.2104 29.5334 89.2104 28.8502ZM92.2046 24.107H89.9747V14.6991H92.2046V16.3954H94.797V18.335H92.2046V20.2512H94.797V22.2066H92.2046V24.107Z" fill="#595757"/>
<path d="M112.47 25.9289V27.9078H105.276V32.7139H103.031V27.9078H95.8607V25.9289H112.47ZM104.166 14.707L111.62 22.7249L109.996 24.1148L104.166 17.8796L98.3507 24.1148L96.7117 22.7249L104.166 14.707Z" fill="#595757"/>
<path d="M119.798 14.6048L125.37 23.4708L123.589 24.6016L119.798 18.4213L116.072 24.7587L114.251 23.6043L119.798 14.5969V14.6048ZM117.632 26.3371V30.3736H129.79V32.3525H115.386V26.3371H117.632ZM129.317 26.235H127.088V14.7069H129.317V18.8454H131.91V21.0442H129.317V26.235Z" fill="#595757"/>
<path d="M133.391 26.078H150V28.0569H142.806V32.6981H140.561V28.0569H133.391V26.078ZM136.937 17.2748H146.438V14.9896H148.669V23.6514H134.73V14.9896H136.937V17.2748ZM146.438 19.2145H136.937V21.696H146.438V19.2145Z" fill="#595757"/>
</g>
</g>
</g>
</g>
</g>
<defs>
<clipPath id="clip0_43_163">
<rect width="150" height="45" fill="white"/>
</clipPath>
</defs>
</svg>
