<svg width="154" height="46" viewBox="0 0 154 46" fill="none" xmlns="http://www.w3.org/2000/svg">
<g clip-path="url(#clip0_43_163)">
<mask id="mask0_43_163" style="mask-type:luminance" maskUnits="userSpaceOnUse" x="0" y="0" width="154" height="46">
<path d="M153.333 0H0V46H153.333V0Z" fill="white"/>
</mask>
<g mask="url(#mask0_43_163)">
<mask id="mask1_43_163" style="mask-type:luminance" maskUnits="userSpaceOnUse" x="1" y="1" width="153" height="45">
<path d="M153.333 1.02222H1.02222V46H153.333V1.02222Z" fill="white"/>
</mask>
<g mask="url(#mask1_43_163)">
<mask id="mask2_43_163" style="mask-type:luminance" maskUnits="userSpaceOnUse" x="1" y="1" width="153" height="45">
<path d="M153.333 1.02222H1.02222V46H153.333V1.02222Z" fill="white"/>
</mask>
<g mask="url(#mask2_43_163)">
<mask id="mask3_43_163" style="mask-type:luminance" maskUnits="userSpaceOnUse" x="1" y="1" width="153" height="45">
<path d="M153.333 1.02222H1.02222V46H153.333V1.02222Z" fill="white"/>
</mask>
<g mask="url(#mask3_43_163)">
<path d="M35.6487 22.4913C31.7503 19.8503 26.7645 20.926 24.1468 24.8996C21.956 28.2149 18.6616 28.6243 17.381 28.6243C13.2168 28.6243 10.3655 25.7023 9.51977 22.6759C9.51977 22.6759 9.50366 22.6197 9.4956 22.5957C9.4956 22.5636 9.4795 22.5315 9.47144 22.4913C9.1412 21.231 9.06066 20.6289 9.06066 19.2883C9.06066 12.0555 16.503 4.01199 27.2237 4.01199C37.9443 4.01199 44.4766 12.3366 46.0955 16.9683C46.0714 16.8881 46.0391 16.8079 46.0149 16.7195C42.8897 7.67253 34.2714 1.16223 24.1307 1.16223C11.3723 1.16223 1.02222 11.4776 1.02222 24.1931C1.02222 35.5601 9.25396 45.2974 20.6672 45.2974C29.7689 45.2974 35.8904 40.208 38.6933 33.2C40.2317 29.3628 39.1444 24.8594 35.6487 22.4913Z" fill="#003668"/>
<path d="M46.2244 17.4179C44.8712 12.9065 38.5484 4.01202 27.2076 4.01202C16.4869 4.01202 9.04456 12.0636 9.04456 19.2883C9.04456 20.629 9.1251 21.231 9.45534 22.4913C9.31841 21.9374 9.24592 21.3836 9.24592 20.8457C9.24592 13.3159 16.8092 8.09802 24.5818 8.09802C35.109 8.09802 43.6389 16.5991 43.6389 27.0911C43.6389 35.3112 38.8947 42.4316 31.9919 45.8514C40.8842 42.6483 47.2312 34.1633 47.2312 24.1931C47.2312 21.833 46.917 19.7539 46.2163 17.4179" fill="#E6002D"/>
<path d="M69.2363 17.4902V19.4489H59.0714V17.4902H62.9618V15.3228H65.4264V17.4902H69.2363ZM68.906 24.8995C68.906 25.4936 68.7852 26.0555 68.5354 26.5934C68.2858 27.1312 67.9475 27.5968 67.5206 27.9981C67.0938 28.3835 66.6024 28.6965 66.0386 28.9293C65.4829 29.1621 64.8787 29.2825 64.2505 29.2825C63.6222 29.2825 63.0181 29.1621 62.4624 28.9293C61.9066 28.6965 61.4153 28.3835 61.0045 27.9981C60.5776 27.5968 60.2393 27.1312 59.9896 26.5934C59.7399 26.0555 59.6191 25.4936 59.6191 24.8995C59.6191 24.3055 59.7399 23.7436 59.9896 23.2057C60.2393 22.6679 60.5776 22.2103 61.0045 21.825C61.4153 21.4236 61.9066 21.1106 62.4624 20.8777C63.0181 20.645 63.6222 20.5245 64.2505 20.5245C64.8787 20.5245 65.4829 20.645 66.0386 20.8777C66.5944 21.1106 67.0938 21.4317 67.5206 21.825C67.9475 22.2103 68.2858 22.6679 68.5354 23.2057C68.7852 23.7436 68.906 24.3055 68.906 24.8995ZM66.7152 24.8995C66.7152 24.2252 66.4815 23.6472 66.0145 23.1655C65.5473 22.684 64.9674 22.4431 64.2746 22.4431C63.582 22.4431 63.0181 22.684 62.5429 23.1655C62.0677 23.6472 61.826 24.2252 61.826 24.8995C61.826 25.5738 62.0596 26.1438 62.5429 26.6255C63.0181 27.0991 63.5981 27.3399 64.2746 27.3399C64.9513 27.3399 65.5473 27.0991 66.0145 26.6255C66.4815 26.1519 66.7152 25.5738 66.7152 24.8995ZM74.6891 15.0338H76.9284V33.4408H74.6891V24.9558H72.5386V33.3365H70.4283V15.0498H72.5386V22.8686H74.6891V15.0257V15.0338Z" fill="#595757"/>
<path d="M88.7684 19.7138C88.7684 20.3318 88.6396 20.9179 88.3738 21.4718C88.108 22.0257 87.7616 22.5073 87.3187 22.9167C86.8918 23.3261 86.3844 23.6553 85.8045 23.8961C85.2244 24.137 84.6042 24.2573 83.9438 24.2573C83.2834 24.2573 82.6389 24.137 82.051 23.8961C81.463 23.6553 80.9555 23.3261 80.5286 22.9167C80.0857 22.5073 79.7313 22.0257 79.4735 21.4718C79.2078 20.9179 79.0789 20.3399 79.0789 19.7138C79.0789 19.0876 79.2078 18.5096 79.4735 17.9477C79.7394 17.3858 80.0857 16.9122 80.5286 16.5108C80.9555 16.1014 81.463 15.7643 82.051 15.5234C82.6389 15.2746 83.2673 15.1542 83.9438 15.1542C84.6204 15.1542 85.2244 15.2746 85.8045 15.5234C86.3844 15.7722 86.8837 16.1014 87.3187 16.5108C87.7616 16.9122 88.1161 17.3858 88.3738 17.9477C88.6396 18.5017 88.7684 19.0957 88.7684 19.7138ZM86.5535 19.7138C86.5535 18.9993 86.2958 18.3892 85.7883 17.8754C85.2809 17.3698 84.6606 17.1129 83.9438 17.1129C83.227 17.1129 82.5987 17.3698 82.0912 17.8754C81.5838 18.3812 81.3341 18.9993 81.3341 19.7138C81.3341 20.4282 81.5838 21.0544 82.0912 21.56C82.5906 22.0658 83.2109 22.3147 83.9438 22.3147C84.6767 22.3147 85.2729 22.0658 85.7883 21.56C86.2958 21.0544 86.5535 20.4443 86.5535 19.7138ZM93.432 29.5154C93.432 30.1334 93.3032 30.7195 93.0535 31.2574C92.7957 31.8032 92.4575 32.2768 92.0306 32.6942C91.6037 33.1036 91.0963 33.4328 90.5083 33.6736C89.9203 33.9144 89.3 34.0348 88.6557 34.0348C88.0114 34.0348 87.3912 33.9144 86.8113 33.6736C86.2313 33.4328 85.732 33.1036 85.297 32.6942C84.854 32.2848 84.5076 31.8032 84.258 31.2574C84.0082 30.7114 83.8874 30.1334 83.8874 29.5154C83.8874 28.8973 84.0082 28.3193 84.258 27.7734C84.5076 27.2276 84.854 26.7539 85.297 26.3365C85.7238 25.9271 86.2313 25.5979 86.8113 25.3571C87.3912 25.1163 88.0033 24.9958 88.6557 24.9958C89.3081 24.9958 89.9203 25.1163 90.5083 25.3571C91.0963 25.5979 91.6037 25.9271 92.0306 26.3365C92.4575 26.7459 92.8038 27.2276 93.0535 27.7734C93.3112 28.3193 93.432 28.8973 93.432 29.5154ZM91.1929 29.4913C91.1929 28.8009 90.9433 28.2149 90.4439 27.7172C89.9445 27.2195 89.3485 26.9707 88.6638 26.9707C87.9792 26.9707 87.3751 27.2195 86.8757 27.7172C86.3683 28.2149 86.1185 28.8009 86.1185 29.4913C86.1185 30.1817 86.3683 30.7917 86.8757 31.2734C87.3751 31.7631 87.9792 32.0039 88.6638 32.0039C89.3485 32.0039 89.9445 31.7631 90.4439 31.2734C90.9433 30.7837 91.1929 30.1896 91.1929 29.4913ZM94.2536 24.6427H91.9742V15.0257H94.2536V16.7597H96.9036V18.7424H94.2536V20.7012H96.9036V22.7H94.2536V24.6427Z" fill="#595757"/>
<path d="M114.97 26.5051V28.528H107.616V33.4409H105.32V28.528H97.991V26.5051H114.97ZM106.48 15.0338L114.1 23.2299L112.44 24.6507L106.48 18.2769L100.536 24.6507L98.8608 23.2299L106.48 15.0338Z" fill="#595757"/>
<path d="M122.46 14.9294L128.156 23.9924L126.335 25.1484L122.46 18.8307L118.651 25.3089L116.79 24.1289L122.46 14.9213V14.9294ZM120.246 26.9224V31.0486H132.674V33.0715H117.95V26.9224H120.246ZM132.191 26.8181H129.912V15.0338H132.191V19.2642H134.841V21.5119H132.191V26.8181Z" fill="#595757"/>
<path d="M136.355 26.6576H153.334V28.6804H145.98V33.4248H143.684V28.6804H136.355V26.6576ZM139.98 17.6587H149.693V15.3228H151.973V24.177H137.724V15.3228H139.98V17.6587ZM149.693 19.6415H139.98V22.1782H149.693V19.6415Z" fill="#595757"/>
</g>
</g>
</g>
</g>
</g>
<defs>
<clipPath id="clip0_43_163">
<rect width="153.333" height="46" fill="white"/>
</clipPath>
</defs>
</svg>
