<svg width="50" height="50" viewBox="0 0 50 50" fill="none" xmlns="http://www.w3.org/2000/svg">
<path d="M31.4998 7H25.4997V31.5759C25.4997 32.7383 24.7497 34.1497 24.6664 34.3988C24.583 34.6479 23.2497 36.6405 21.083 36.8896C18.9162 37.1387 18.0829 36.3084 16.4995 35.3951C14.9162 34.4818 14.7495 32.4062 14.6662 31.1608C14.5828 29.9154 15.7495 28.2548 16.4995 27.5906C17.0995 27.0592 20.0829 26.1515 21.4996 25.764V20.0352C20.8607 19.8691 18.6996 19.6865 15.1662 21.2806C10.7494 23.2732 9.49939 27.8397 9.24938 28.5869C8.99938 29.3342 8.5827 32.5722 10.0827 36.1424C11.5828 39.7125 13.1661 40.3767 13.4161 40.7088C13.6661 41.0409 18.1662 43.3657 20.2496 42.9505C22.333 42.5354 24.833 42.1203 27.9998 39.2974C30.5331 37.039 31.3887 33.2087 31.4998 31.5759V18.7898C35.0332 20.8488 38.6389 21.1976 40 21.1145V15.4687C33.5332 15.2695 31.6387 9.73988 31.4998 7Z" fill="black"/>
</svg>
